<svg id="ethIWv2pO131" xmlns="http://www.w3.org/2000/svg" xmlns:xlink="http://www.w3.org/1999/xlink" viewBox="0 0 50 50" shape-rendering="geometricPrecision" text-rendering="geometricPrecision" project-id="98b909a59aaf4f9fbe184a40436df795" export-id="27629410a12343948a54e3aea98ee9df" cached="false"><path d="M43.910156,12.003906L27.070313,2.539063c-1.277344-.714844-2.863282-.714844-4.140625,0L6.089844,12.003906C4.800781,12.726563,4,14.082031,4,15.535156v18.929688c0,1.453125.800781,2.808594,2.089844,3.53125l16.839844,9.464844C23.570313,47.820313,24.285156,48,25,48s1.429688-.179687,2.070313-.539062l16.839843-9.464844C45.199219,37.273438,46,35.917969,46,34.464844v-18.929688c0-1.453125-.800781-2.808593-2.089844-3.53125ZM26,37c-6.617187,0-12-5.382812-12-12s5.382813-12,12-12c3.78125,0,7.273438,1.753906,9.542969,4.742188l-4.382813,2.535156C29.84375,18.835938,27.972656,18,26,18c-3.859375,0-7,3.140625-7,7s3.140625,7,7,7c1.972656,0,3.84375-.835937,5.160156-2.277344l4.382813,2.535157C33.273438,35.246094,29.78125,37,26,37Z" fill="#fff"/></svg>
