<?xml version="1.0" encoding="UTF-8"?>
<!DOCTYPE svg PUBLIC "-//W3C//DTD SVG 1.1//EN" "http://www.w3.org/Graphics/SVG/1.1/DTD/svg11.dtd">
<svg xmlns="http://www.w3.org/2000/svg" version="1.1" width="512px" height="512px" style="shape-rendering:geometricPrecision; text-rendering:geometricPrecision; image-rendering:optimizeQuality; fill-rule:evenodd; clip-rule:evenodd" xmlns:xlink="http://www.w3.org/1999/xlink">
<g><path style="opacity:0.947" fill="#000000" d="M 383.5,-0.5 C 386.5,-0.5 389.5,-0.5 392.5,-0.5C 395.447,2.01948 397.947,5.01948 400,8.5C 411.033,26.5622 421.033,45.2289 430,64.5C 434.548,74.3579 437.381,84.6912 438.5,95.5C 437.92,108.587 433.253,119.921 424.5,129.5C 446.937,146.433 464.437,167.433 477,192.5C 486.698,213.798 487.698,235.465 480,257.5C 469.336,279.253 451.836,288.586 427.5,285.5C 428.83,339.063 425.997,392.397 419,445.5C 416.86,461.532 413.194,477.199 408,492.5C 405.154,500.493 400.321,506.826 393.5,511.5C 389.5,511.5 385.5,511.5 381.5,511.5C 375.803,508.297 371.636,503.631 369,497.5C 363.776,484.604 360.109,471.271 358,457.5C 350.353,407.468 346.687,357.134 347,306.5C 325.573,323.341 312.907,345.341 309,372.5C 308.667,389.167 308.333,405.833 308,422.5C 302.123,456.714 283.623,481.547 252.5,497C 221.12,509.068 190.12,508.068 159.5,494C 95.1656,464.531 53.3323,415.697 34,347.5C 31.458,337.29 29.6246,326.957 28.5,316.5C 29.2029,307.133 34.2029,303.633 43.5,306C 44.9308,306.465 46.0975,307.299 47,308.5C 55.8868,371.478 86.0535,421.311 137.5,458C 156.507,470.56 177.174,479.227 199.5,484C 239.847,487.253 268.014,470.42 284,433.5C 285.158,429.203 286.158,424.869 287,420.5C 287.333,403.833 287.667,387.167 288,370.5C 293.493,331.487 312.993,301.82 346.5,281.5C 347.739,241.628 351.239,201.962 357,162.5C 358.329,154.514 360.163,146.68 362.5,139C 350.846,131.347 343.013,120.847 339,107.5C 275.632,77.2694 212.799,78.436 150.5,111C 100.613,140.911 68.1131,184.078 53,240.5C 49.1791,246.393 44.0125,247.893 37.5,245C 34.7855,242.57 33.1188,239.57 32.5,236C 51.7497,162.167 96.4164,110.167 166.5,80C 224.263,58.7625 281.597,59.9291 338.5,83.5C 348.265,57.6369 360.432,32.9703 375,9.5C 377.15,5.49725 379.984,2.16392 383.5,-0.5 Z M 387.5,30.5 C 400.983,50.4723 410.983,72.139 417.5,95.5C 412.245,119.457 397.912,127.957 374.5,121C 359.41,111.654 355.076,98.6536 361.5,82C 368.735,64.0291 377.402,46.8625 387.5,30.5 Z M 251.5,136.5 C 269.648,135.148 277.815,143.481 276,161.5C 269.178,175.042 259.011,178.209 245.5,171C 237.602,162.745 236.435,153.579 242,143.5C 244.79,140.535 247.957,138.202 251.5,136.5 Z M 382.5,144.5 C 385.349,145.591 388.182,145.591 391,144.5C 391.945,144.905 392.612,145.572 393,146.5C 398.876,171.845 402.376,197.511 403.5,223.5C 392.833,224.833 382.167,224.833 371.5,223.5C 372.648,196.798 376.315,170.465 382.5,144.5 Z M 415.5,150.5 C 434.142,164.083 448.309,181.416 458,202.5C 464.017,217.163 465.017,232.163 461,247.5C 454.393,261.722 443.226,267.388 427.5,264.5C 426.44,226.165 422.44,188.165 415.5,150.5 Z M 141.5,186.5 C 159.648,185.148 167.815,193.481 166,211.5C 159.178,225.042 149.011,228.209 135.5,221C 127.602,212.745 126.435,203.579 132,193.5C 134.79,190.535 137.957,188.202 141.5,186.5 Z M 369.5,244.5 C 381.507,245.703 393.507,245.703 405.5,244.5C 407.161,292.189 406.661,339.856 404,387.5C 402.427,416.514 398.427,445.18 392,473.5C 390.792,477.626 389.292,481.626 387.5,485.5C 382.934,474.24 379.768,462.573 378,450.5C 368.748,382.029 365.915,313.363 369.5,244.5 Z M 111.5,306.5 C 129.648,305.148 137.815,313.481 136,331.5C 129.178,345.042 119.011,348.209 105.5,341C 97.6019,332.745 96.4352,323.579 102,313.5C 104.79,310.535 107.957,308.202 111.5,306.5 Z M 201.5,386.5 C 219.648,385.148 227.815,393.481 226,411.5C 219.178,425.042 209.011,428.209 195.5,421C 187.602,412.745 186.435,403.579 192,393.5C 194.79,390.535 197.957,388.202 201.5,386.5 Z"/></g>
<g><path style="opacity:0.944" fill="#000000" d="M 248.5,115.5 C 271.329,112.547 287.163,121.547 296,142.5C 301.718,166.897 293.218,184.064 270.5,194C 246.103,199.718 228.936,191.218 219,168.5C 213.424,141.977 223.257,124.31 248.5,115.5 Z M 251.5,136.5 C 247.957,138.202 244.79,140.535 242,143.5C 236.435,153.579 237.602,162.745 245.5,171C 259.011,178.209 269.178,175.042 276,161.5C 277.815,143.481 269.648,135.148 251.5,136.5 Z"/></g>
<g><path style="opacity:0.944" fill="#000000" d="M 138.5,165.5 C 161.329,162.547 177.163,171.547 186,192.5C 191.718,216.897 183.218,234.064 160.5,244C 136.103,249.718 118.936,241.218 109,218.5C 103.424,191.977 113.257,174.31 138.5,165.5 Z M 141.5,186.5 C 137.957,188.202 134.79,190.535 132,193.5C 126.435,203.579 127.602,212.745 135.5,221C 149.011,228.209 159.178,225.042 166,211.5C 167.815,193.481 159.648,185.148 141.5,186.5 Z"/></g>
<g><path style="opacity:0.908" fill="#000000" d="M 32.5,265.5 C 44.3244,263.824 49.1577,268.824 47,280.5C 43.3449,285.275 38.5116,286.775 32.5,285C 27.7255,281.345 26.2255,276.512 28,270.5C 29.3657,268.638 30.8657,266.972 32.5,265.5 Z"/></g>
<g><path style="opacity:0.944" fill="#000000" d="M 108.5,285.5 C 131.329,282.547 147.163,291.547 156,312.5C 161.718,336.897 153.218,354.064 130.5,364C 106.103,369.718 88.936,361.218 79,338.5C 73.4241,311.977 83.2574,294.31 108.5,285.5 Z M 111.5,306.5 C 107.957,308.202 104.79,310.535 102,313.5C 96.4352,323.579 97.6019,332.745 105.5,341C 119.011,348.209 129.178,345.042 136,331.5C 137.815,313.481 129.648,305.148 111.5,306.5 Z"/></g>
<g><path style="opacity:0.944" fill="#000000" d="M 198.5,365.5 C 221.329,362.547 237.163,371.547 246,392.5C 251.718,416.897 243.218,434.064 220.5,444C 196.103,449.718 178.936,441.218 169,418.5C 163.424,391.977 173.257,374.31 198.5,365.5 Z M 201.5,386.5 C 197.957,388.202 194.79,390.535 192,393.5C 186.435,403.579 187.602,412.745 195.5,421C 209.011,428.209 219.178,425.042 226,411.5C 227.815,393.481 219.648,385.148 201.5,386.5 Z"/></g>
</svg>
