<?xml version="1.0" encoding="UTF-8"?>
<!DOCTYPE svg PUBLIC "-//W3C//DTD SVG 1.1//EN" "http://www.w3.org/Graphics/SVG/1.1/DTD/svg11.dtd">
<svg xmlns="http://www.w3.org/2000/svg" version="1.1" width="512px" height="512px" style="shape-rendering:geometricPrecision; text-rendering:geometricPrecision; image-rendering:optimizeQuality; fill-rule:evenodd; clip-rule:evenodd" xmlns:xlink="http://www.w3.org/1999/xlink">
<g><path style="opacity:0.967" fill="#000000" d="M 184.5,25.5 C 222.77,24.79 260.77,27.6233 298.5,34C 321.402,37.5209 342.735,45.1876 362.5,57C 369.992,62.4818 375.159,69.6484 378,78.5C 378.333,107.167 378.667,135.833 379,164.5C 420.986,181.485 451.652,210.485 471,251.5C 496.562,316.239 487.562,375.572 444,429.5C 396.786,478.518 339.953,495.018 273.5,479C 229.975,465.752 196.975,439.418 174.5,400C 140.678,397.938 107.345,392.604 74.5,384C 58.0922,379.552 43.9256,371.385 32,359.5C 28.91,355.318 26.91,350.651 26,345.5C 25.8333,301.333 25.6667,257.167 25.5,213C 25.3458,167.13 25.8458,121.297 27,75.5C 32.8892,63.9442 41.7225,55.4442 53.5,50C 74.008,41.1654 95.3413,35.1654 117.5,32C 139.887,28.781 162.22,26.6144 184.5,25.5 Z M 182.5,58.5 C 229.213,56.8365 275.213,61.6699 320.5,73C 329.16,75.3266 337.16,78.9932 344.5,84C 337.778,89.6939 330.112,93.6939 321.5,96C 282.538,106.495 242.871,111.662 202.5,111.5C 175.374,111.039 148.374,108.872 121.5,105C 100.404,102.396 80.4041,96.3962 61.5,87C 60.273,85.4126 60.6063,84.0793 62.5,83C 75.6753,75.8294 89.6753,70.8294 104.5,68C 130.418,62.9115 156.418,59.7448 182.5,58.5 Z M 58.5,121.5 C 80.0048,130.293 102.338,136.127 125.5,139C 190.663,147.868 255.33,145.202 319.5,131C 328.008,128.664 336.342,125.831 344.5,122.5C 345.499,133.48 345.832,144.48 345.5,155.5C 270.846,147.747 213.679,175.414 174,238.5C 144.361,237.066 115.195,232.566 86.5,225C 76.6879,222.425 67.6879,218.258 59.5,212.5C 58.5079,182.211 58.1746,151.877 58.5,121.5 Z M 310.5,186.5 C 369.54,185.921 412.707,211.588 440,263.5C 461.217,315.183 454.55,362.849 420,406.5C 377.983,450.129 328.149,462.295 270.5,443C 217.559,418.991 189.559,377.824 186.5,319.5C 188.621,268.064 211.621,229.23 255.5,203C 272.896,193.919 291.229,188.419 310.5,186.5 Z M 159.5,364.5 C 129.376,363.202 100.042,357.702 71.5,348C 66.9188,346.129 62.7522,343.629 59,340.5C 58.5,310.502 58.3334,280.502 58.5,250.5C 91.4781,262.109 125.478,268.776 160.5,270.5C 151.638,301.742 151.305,333.075 159.5,364.5 Z"/></g>
<g><path style="opacity:0.957" fill="#000000" d="M 280.5,249.5 C 296.147,249.64 302.313,257.307 299,272.5C 298.333,273.833 297.667,275.167 297,276.5C 282.653,290.681 268.486,305.014 254.5,319.5C 268.486,333.986 282.653,348.319 297,362.5C 302.987,373.188 300.821,381.688 290.5,388C 284.522,390.242 278.855,389.575 273.5,386C 254.667,367.167 235.833,348.333 217,329.5C 213.667,322.833 213.667,316.167 217,309.5C 235.833,290.667 254.667,271.833 273.5,253C 275.925,251.787 278.259,250.621 280.5,249.5 Z"/></g>
<g><path style="opacity:0.956" fill="#000000" d="M 351.5,249.5 C 356.548,249.127 361.215,250.294 365.5,253C 384,271.5 402.5,290 421,308.5C 425.667,315.833 425.667,323.167 421,330.5C 402.5,349 384,367.5 365.5,386C 355.297,391.817 346.797,389.984 340,380.5C 338,375.5 338,370.5 340,365.5C 354.652,350.015 369.485,334.681 384.5,319.5C 369.485,304.319 354.652,288.985 340,273.5C 336.109,261.631 339.943,253.631 351.5,249.5 Z"/></g>
</svg>
