<svg id="e6vGwpuHMbE1" xmlns="http://www.w3.org/2000/svg" xmlns:xlink="http://www.w3.org/1999/xlink" viewBox="0 0 480 447" shape-rendering="geometricPrecision" text-rendering="geometricPrecision" project-id="6a9252e4cc6e4bea91fbe14b0ac6ea2b" export-id="fe25dcfd1a5e4af5b7cc39705042ef4f" cached="true"><path d="M45.634754,283.02575c0,0-10.527603-31.957909-8.445909-69.984239c2.065549-37.731402,17.93627-89.414448,55.586565-126.009264C136.303385,44.724524,191.527583,28.617972,239.999994,29.0246c46.362893.388931,102.613011,21.42828,143.088398,65.770026c32.069974,35.133417,50.455464,81.916985,50.455464,124.198067c0,42.27264-9.078284,63.846568-9.078284,63.846568s33.17718,0,46.171097-.088831c.884919-.00605,2.073637,1.218255,2.068321,2.103177-.193589,32.22479,0,76.810307-.193589,106.71608-.004653.718731-1.062053,1.602714-1.780796,1.602714-41.50293,0-135.75792-.17592-135.75792-.17592s-40.015471,26.576456-94.972691,26.576442c-66.950563,0-104.557194-26.725164-104.557194-26.725164s-86.17122.148722-125.64712.117809c-.823835-.000645-2.26-.736165-2.26-1.560001c0-33.057701,0-77.894601-.065427-106.243322-.001636-.708837,1.045259-1.689238,1.78185-1.689238c11.085761,0,36.382651-.447257,36.382651-.447257Z" transform="translate(.172348 0.172348)" fill="none" stroke="#fff" stroke-width="15"/><g><ellipse rx="15.026967" ry="14.87076" transform="matrix(1.098026 0 0 1.10956 193.166912 150.016424)" fill="#fff" stroke-width="0"/><path d="M126.795613,164.630373c-6.811457,1.881409-11.693856-12.650804-3.731245-14.616267c4.527745-1.117613,19.903103-5.04886,28.851691-7.287902c1.852057-.463407,4.869743-.159005,6.258971,1.150545c11.757238,11.082911,40.5724,38.158608,40.5724,38.158608s16.324613-3.139462,25.777576-4.892907c6.611361-1.226352,9.546029,13.623404,2.975245,15.445952-5.625657,1.560397-15.035888,3.883707-28.170446,6.840866-1.943421.437548-5.011694-.004886-6.50762-1.320382-4.822136-4.240518-14.218375-12.523621-14.218375-12.523621l-19.511227,20.953888c0,0,14.298574,7.326783,20.626155,10.669465c2.860519,1.511131,3.536154,7.866845,1.845019,10.624772-5.818041,9.488148-14.097955,23.306764-18.955723,31.313998-4.433004,7.307081-20.049902-.408761-15.211449-7.98601c5.103739-7.992699,15.280246-24.500812,15.280246-24.500812l-22.085702-11.507813c0,0-10.301497,12.680637-16.019825,19.718831-.983781,1.21085-3.0613,2.124725-4.587148,2.449954-10.039482,2.139879-15.471505,3.257186-29.958303,6.224524-7.90272,1.618718-12.616474-15.104859-3.89473-16.669446c10.974647-1.968734,27.80178-4.954903,27.80178-4.954903l46.644195-52.808148-9.758662-10.539355q-14.901456,3.536728-24.022823,6.056163Z" transform="translate(.000013 0.000005)" fill="#fff" stroke="#fff" stroke-width="5"/></g><ellipse rx="15.386495" ry="15.139057" transform="matrix(1.072369 0 0 1.089743 351.5882 150.014106)" fill="#fff" stroke-width="0"/><g transform="translate(0 0.000001)"><path d="M230.290645,178.832129c0,0,1.907141-2.662904,2.912015-3.633161c6.036674-5.828719,14.933749-11.699317,22.42543-16.718058.554042-.371158,1.621189-.339196,2.222339-.050509c2.471229,3.16925,8.030729,10.505608,8.030729,10.505608s.101016.921505.101016,2.272848c-2.729899-.593333-5.869899-.953333-7.37413.151523-1.923942,1.413133-1.111171,5.471624-1.111171,7.879206c0,1.492418-1.515564,2.381418-2.575895,2.424369-12.468763.505078-10.560228.505078-14.142165.505078-2.541411,0-7.581826,3.778904-7.581826,3.778904l-2.906342-7.115808Z" transform="translate(.000008 0.000002)" fill="none" stroke="#fff" stroke-width="3" stroke-linejoin="round" stroke-miterlimit="5"/><path d="M260.162599,161.704091c0,0-13.93498,8.342121-19.383778,12.645354-2.902268,2.29209-8.944753,8.482699-8.944753,8.482699" transform="translate(.000001 0)" fill="none" stroke="#fff" stroke-width="3"/><path d="M259.107399,169.687966l-3.479301-3.818327-2.152965,1.566493l3.478337,3.924251l2.153929-1.672417Z" transform="translate(.000001 0)" fill="#fff" stroke="#fff" stroke-width="0.96"/><path d="M241.319897,180.967724c0,0,0-1.320678,0-1.728135c0-.6,2-1.007457,2-.407457c0,.407457,1.019999.407457,1.019998,0-.000002-.664408,1.861559-.668816,1.88.015592.007769.288362,1.328188.272761,1.32-.015592-.020002-.704408,1.9-.505808,1.9,0c0,.407457,1.400002.407457,1.400002,0c0-.505808,2.612539-.098351,2.612541.407457.000002.407457.000001,1.428135.000001,1.428135" transform="translate(.000002 0)" fill="#fff" stroke="#fff" stroke-width="0.96"/></g><g transform="translate(.000001 0.000001)"><path d="M76.15832,307.138326l-38.797127-.083919-.000001,28.250381v29.196052l38.790113-.071211" transform="translate(.000001 0.000003)" fill="none" stroke="#fff" stroke-width="10"/><path d="M71.451453,335.304791h-34.090259" transform="translate(.000001 0)" fill="none" stroke="#fff" stroke-width="10"/></g><g transform="translate(.000001 0.000001)"><path d="M88.95635,302.089829c0,0,.077353,29.361888-.044606,44.049179.044606,7.34848,4.036014,14.75599,4.036014,14.75599l7.707417-8.421277c0,0-1.761313-3.403225-1.761313-7.572498c0-14.251758,0-42.811394,0-42.811394h-9.937512Z" transform="translate(.000003 0.09157)" fill="#fff" stroke="#fff" stroke-width="0.96"/><path d="M124.007514,353.170799c0,0-4.023345,5.237967-11.146848,5.237967-7.588342,0-11.788342-5.237967-11.788342-5.237967s-7.634358,8.651998-7.634358,8.651998s7.716601,10.244779,18.868211,10.244779s19.299583-10.244779,19.299583-10.244779l-7.598246-8.651998Z" transform="translate(0 0.000001)" fill="#ce4141" stroke="#ce4141" stroke-width="0.96"/><path d="M88.95635,302.089829c0,0,.077353,29.361888-.044606,44.049179.044606,7.34848,4.036014,14.75599,4.036014,14.75599l7.707417-8.421277c0,0-1.761313-3.403225-1.761313-7.572498c0-14.251758,0-42.811394,0-42.811394h-9.937512Z" transform="matrix(-1 0 0 1 225.074819 0.09157)" fill="#fff" stroke="#fff" stroke-width="0.96"/></g><path d="M156.32263,369.174714v-62.036384c0,0,17.424679-.083919,24.087873-.083919c15.895234.083919,15.878693,31.366396,0,31.366396-8.914482,0-24.087873,0-24.087873,0" fill="none" stroke="#fff" stroke-width="10"/><g transform="translate(.000001 0)"><path d="M215.910427,302.1814l.227212,66.993314" fill="none" stroke="#fff" stroke-width="10"/><path d="M253.475133,302.1814l-.022694,66.993314" fill="none" stroke="#fff" stroke-width="10"/><path d="M216.137639,335.777628h37.3148" fill="none" stroke="#fff" stroke-width="10"/></g><g><path d="M280.935858,369.174714l-.321185-62.036384c0,0,17.050064-.123655,23.745157-.083919c14.139298.083919,17.61013,28.723217-.073747,28.723217-9.061846,0-23.311085,0-23.311085,0" transform="translate(.000001 0)" fill="none" stroke="#fff" stroke-width="10"/><path d="M318.499129,369.174714l-18.495706-33.397086" transform="translate(.029586 0)" fill="none" stroke="#fff" stroke-width="10" stroke-linejoin="bevel"/></g><g transform="translate(.000001 0)"><path d="M339.341811,360.417868l8.22312-8.680003c0,0-1.387363-4.126014-1.387363-16.059815c0-4.579055.158381-10.514745.904243-15.247699c1.60516-10.185733,21.50173-11.604636,23.975392.20883.948913,4.531725.696104,10.592113.696104,15.138445c0,14.001545-1.461818,15.960239-1.461818,15.960239l8.59709,8.679999c0,0,2.930257-3.593548,3.90602-9.509769c1.426059-8.646444.466142-20.596205.46614-29.35946-.000002-12.379436-12.96925-20.862696-23.61221-20.862696-12.566717,0-24.560333,8.649282-24.560332,20.174533.000001,8.508206-.564466,21.015977.55631,29.450038.756952,5.696211,3.697304,10.107358,3.697304,10.107358Z" transform="translate(.000003 0.000007)" fill="#fff" stroke="#fff" stroke-width="0.96"/><path d="M348.048448,352.476171c0,0,5.379919,6.374636,11.212876,6.374636s10.458198-6.374636,10.458198-6.374636s8.536805,8.622458,8.536805,8.622458-9.271564,10.968949-18.995003,10.968949-19.3348-10.947791-19.3348-10.947791l8.121924-8.643616Z" transform="translate(.000001 0)" fill="#ce4141" stroke="#ce4141" stroke-width="0.96"/></g><path d="M397.927076,369.174714h9.82098v-50.752101l28.6205,50.208787h11.544974v-66.450002h-9.606511l-.309234,50.294771-28.999868-50.294771h-11.070841v66.993316Z" transform="translate(0 0.000002)" fill="#fff" stroke="#fff" stroke-width="0.96"/><path d="M281.013774,166.165225c-9.704806,0-8.376595-14.192412-.092021-14.723385c9.380364-.601204,20.851852-1.104254,23.465396-1.104254c4.346117,0,24.385606,5.521269,24.385606,5.521269l28.822711,28.034787c0,0,9.666616-8.7066,14.037653-12.713496c5.793119-5.310508,16.567328,4.970164,10.150538,11.092342-7.763474,7.407032-20.151356,19.67371-23.668599,20.031181-5.261933.534791-20.15161-14.65046-20.15161-14.65046L318.296481,208.02992c0,0,23.014978,9.803497,23.014978,15.470078c0,7.137085-15.350374,29.005187-19.827762,35.744431-6.363075,9.57753-20.343619,2.03454-14.513399-6.971693c4.239223-6.54854,14.863854-24.072851,14.863854-24.072851l-22.744271-12.047709c0,0-12.764022,18.331175-17.099736,21.169365-4.532378,2.966928-18.806853,4.51123-32.607006,6.545482-11.09812,1.635951-11.313431-13.889721-2.078092-15.58461c6.274887-1.151581,25.531195-4.782415,25.531195-4.782415l45.692472-52.319852-15.65442-4.867502c0,0-11.884622,0-21.86052-.147419Z" transform="translate(.000001 0.000002)" fill="#fff" stroke="#fff" stroke-width="0.96"/></svg>

