<?xml version="1.0" encoding="UTF-8"?>
<!DOCTYPE svg PUBLIC "-//W3C//DTD SVG 1.1//EN" "http://www.w3.org/Graphics/SVG/1.1/DTD/svg11.dtd">
<svg xmlns="http://www.w3.org/2000/svg" version="1.1" width="512px" height="512px" style="shape-rendering:geometricPrecision; text-rendering:geometricPrecision; image-rendering:optimizeQuality; fill-rule:evenodd; clip-rule:evenodd" xmlns:xlink="http://www.w3.org/1999/xlink">
<g><path style="opacity:0.928" fill="#000000" d="M 7.5,-0.5 C 10.1667,-0.5 12.8333,-0.5 15.5,-0.5C 17.1436,0.316435 18.3103,1.64977 19,3.5C 19.3333,18.8333 19.6667,34.1667 20,49.5C 24.0513,57.3741 30.2179,59.5408 38.5,56C 41,54.8333 42.8333,53 44,50.5C 44.3333,34.8333 44.6667,19.1667 45,3.5C 46.0319,1.97331 47.1986,0.639972 48.5,-0.5C 51.1667,-0.5 53.8333,-0.5 56.5,-0.5C 57.8361,1.01027 59.0027,2.67694 60,4.5C 60.9433,21.8864 60.61,39.2197 59,56.5C 50.6786,71.4021 38.1786,76.5688 21.5,72C 13.3074,69.1407 7.80736,63.6407 5,55.5C 3.39125,38.5533 3.05792,21.5533 4,4.5C 4.99728,2.67694 6.16394,1.01027 7.5,-0.5 Z"/></g>
<g><path style="opacity:0.925" fill="#000000" d="M 79.5,-0.5 C 82.1667,-0.5 84.8333,-0.5 87.5,-0.5C 89.1436,0.316435 90.3103,1.64977 91,3.5C 91.6667,25.5 91.6667,47.5 91,69.5C 89.6071,72.3661 87.2738,73.6994 84,73.5C 79.6516,73.6661 76.985,71.6661 76,67.5C 75.3333,46.8333 75.3333,26.1667 76,5.5C 76.5637,3.11327 77.7304,1.11327 79.5,-0.5 Z"/></g>
<g><path style="opacity:0.916" fill="#000000" d="M 138.5,-0.5 C 141.5,-0.5 144.5,-0.5 147.5,-0.5C 150.393,2.93804 151.227,6.93804 150,11.5C 141.391,31.0512 133.058,50.7178 125,70.5C 120.924,74.034 116.591,74.3674 112,71.5C 110.517,68.2976 110.183,64.9643 111,61.5C 119.704,40.5271 128.871,19.8605 138.5,-0.5 Z"/></g>
<g><path style="opacity:0.928" fill="#000000" d="M 170.5,-0.5 C 173.167,-0.5 175.833,-0.5 178.5,-0.5C 180.144,0.316435 181.31,1.64977 182,3.5C 182.061,19.5533 182.728,35.5533 184,51.5C 189.475,58.0374 195.975,59.204 203.5,55C 205.049,53.786 206.215,52.286 207,50.5C 207.333,35.1667 207.667,19.8333 208,4.5C 208.997,2.67694 210.164,1.01027 211.5,-0.5C 214.167,-0.5 216.833,-0.5 219.5,-0.5C 221.144,0.316435 222.31,1.64977 223,3.5C 223.667,20.1667 223.667,36.8333 223,53.5C 218.628,66.6153 209.461,73.282 195.5,73.5C 182.313,73.6558 173.147,67.6558 168,55.5C 166.425,38.8728 166.092,22.2062 167,5.5C 167.564,3.11327 168.73,1.11327 170.5,-0.5 Z"/></g>
<g><path style="opacity:0.921" fill="#000000" d="M 238.5,-0.5 C 241.167,-0.5 243.833,-0.5 246.5,-0.5C 251.491,6.13692 256.491,12.8036 261.5,19.5C 266.497,12.8419 271.497,6.17524 276.5,-0.5C 279.167,-0.5 281.833,-0.5 284.5,-0.5C 288.17,2.20539 289.337,5.87205 288,10.5C 282.889,18.6102 277.389,26.4435 271.5,34C 278.124,43.4132 284.624,52.9132 291,62.5C 292.898,69.0621 290.565,72.7287 284,73.5C 281.186,73.5924 278.853,72.5924 277,70.5C 272,63.1667 267,55.8333 262,48.5C 255.955,56.7563 249.788,64.923 243.5,73C 233.488,74.3205 229.988,70.1538 233,60.5C 239.412,52.0092 245.579,43.3425 251.5,34.5C 246.247,26.3262 240.747,18.3262 235,10.5C 233.663,5.91592 234.829,2.24925 238.5,-0.5 Z"/></g>
<g><path style="opacity:0.922" fill="#000000" d="M 443.5,-0.5 C 463.5,-0.5 483.5,-0.5 503.5,-0.5C 509.26,5.52638 508.594,10.693 501.5,15C 492.167,15.1667 482.833,15.3333 473.5,15.5C 463.097,15.6309 452.764,15.1309 442.5,14C 439.606,11.0913 438.773,7.59129 440,3.5C 440.69,1.64977 441.856,0.316435 443.5,-0.5 Z"/></g>
<g><path style="opacity:0.921" fill="#000000" d="M 443.5,28.5 C 463.169,28.3334 482.836,28.5 502.5,29C 507.568,31.9825 508.735,36.1492 506,41.5C 504.829,42.8932 503.329,43.7265 501.5,44C 482.5,44.6667 463.5,44.6667 444.5,44C 439.776,41.5647 438.276,37.7314 440,32.5C 441.102,31.051 442.269,29.7177 443.5,28.5 Z"/></g>
<g><path style="opacity:0.921" fill="#000000" d="M 444.5,57.5 C 463.836,57.3334 483.17,57.5 502.5,58C 507.305,61.0892 508.472,65.2558 506,70.5C 505.097,71.7014 503.931,72.5348 502.5,73C 482.833,73.6667 463.167,73.6667 443.5,73C 437.939,67.3527 438.272,62.186 444.5,57.5 Z"/></g>
<g><path style="opacity:0.935" fill="#000000" d="M 9.5,105.5 C 173.5,105.333 337.5,105.5 501.5,106C 508.527,110.138 509.194,115.138 503.5,121C 338.167,121.667 172.833,121.667 7.5,121C 1.87032,114.988 2.53699,109.821 9.5,105.5 Z"/></g>
<g><path style="opacity:0.933" fill="#000000" d="M 24.5,154.5 C 67.8346,154.333 111.168,154.5 154.5,155C 166.871,159.039 173.705,167.539 175,180.5C 175.667,226.167 175.667,271.833 175,317.5C 173.992,331.842 166.492,340.675 152.5,344C 110.5,344.667 68.5,344.667 26.5,344C 13.9087,341.075 6.4087,333.241 4,320.5C 3.33333,296.167 3.33333,271.833 4,247.5C 8.5799,239.933 13.5799,239.599 19,246.5C 19.3333,270.5 19.6667,294.5 20,318.5C 21.0681,323.235 23.9014,326.402 28.5,328C 68.8333,328.667 109.167,328.667 149.5,328C 155.375,326.424 158.541,322.591 159,316.5C 159.667,271.5 159.667,226.5 159,181.5C 158.444,176.611 155.944,173.111 151.5,171C 110.167,170.333 68.8333,170.333 27.5,171C 23.9151,172.916 21.4151,175.749 20,179.5C 19.6667,192.5 19.3333,205.5 19,218.5C 16.3981,222.212 12.8981,223.378 8.5,222C 6.33333,221.167 4.83333,219.667 4,217.5C 3.33333,204.167 3.33333,190.833 4,177.5C 6.70618,166.046 13.5395,158.38 24.5,154.5 Z"/></g>
<g><path style="opacity:0.948" fill="#000000" d="M 486.5,511.5 C 399.833,511.5 313.167,511.5 226.5,511.5C 215.092,508.078 208.258,500.412 206,488.5C 205.333,384.833 205.333,281.167 206,177.5C 208.627,166.205 215.46,158.705 226.5,155C 313.167,154.333 399.833,154.333 486.5,155C 497.568,158.631 504.401,166.131 507,177.5C 507.667,281.167 507.667,384.833 507,488.5C 504.742,500.412 497.908,508.078 486.5,511.5 Z M 229.5,170.5 C 314.167,170.333 398.834,170.5 483.5,171C 487.058,172.892 489.558,175.725 491,179.5C 491.667,281.833 491.667,384.167 491,486.5C 489.071,491.892 485.237,495.059 479.5,496C 397.5,496.667 315.5,496.667 233.5,496C 228.988,495.492 225.488,493.325 223,489.5C 221.34,386.223 221.007,282.89 222,179.5C 223.642,175.7 226.142,172.7 229.5,170.5 Z M 289.5,412.5 C 334.168,412.333 378.835,412.5 423.5,413C 435.778,416.722 439.611,424.556 435,436.5C 432.197,440.646 428.364,443.146 423.5,444C 378.833,444.667 334.167,444.667 289.5,444C 277.222,440.278 273.389,432.444 278,420.5C 280.961,416.34 284.795,413.673 289.5,412.5 Z"/></g>
<g><path style="opacity:0.872" fill="#000000" d="M 45.5,201.5 C 49.9671,201.133 54.3004,201.633 58.5,203C 60.4285,206.256 60.9285,209.756 60,213.5C 55.1391,217.822 49.6391,218.655 43.5,216C 39.062,210.373 39.7287,205.54 45.5,201.5 Z"/></g>
<g><path style="opacity:0.919" fill="#000000" d="M 85.5,201.5 C 101.503,201.333 117.503,201.5 133.5,202C 140.321,207.394 139.987,212.394 132.5,217C 117.167,217.667 101.833,217.667 86.5,217C 81.9315,214.459 80.4315,210.625 82,205.5C 83.3756,204.295 84.5423,202.962 85.5,201.5 Z"/></g>
<g><path style="opacity:0.922" fill="#000000" d="M 348.5,208.5 C 386.379,207.245 413.545,223.579 430,257.5C 442.547,295.16 433.714,326.66 403.5,352C 370.18,372.942 337.514,371.942 305.5,349C 292.084,337.334 283.417,322.834 279.5,305.5C 280.868,297.599 285.201,295.432 292.5,299C 295.796,306.533 299.296,314.033 303,321.5C 323.117,348.76 349.283,356.926 381.5,346C 412.358,329.445 424.192,303.945 417,269.5C 403.73,236.112 379.23,221.612 343.5,226C 324.887,230.551 310.721,241.051 301,257.5C 298.152,264.063 295.318,270.563 292.5,277C 282.881,280.05 278.715,276.55 280,266.5C 291.155,233.165 313.989,213.831 348.5,208.5 Z"/></g>
<g><path style="opacity:0.879" fill="#000000" d="M 45.5,241.5 C 49.9671,241.133 54.3004,241.633 58.5,243C 62.619,254.229 58.619,258.896 46.5,257C 38.9705,252.215 38.6371,247.048 45.5,241.5 Z"/></g>
<g><path style="opacity:0.919" fill="#000000" d="M 85.5,241.5 C 101.503,241.333 117.503,241.5 133.5,242C 140.321,247.394 139.987,252.394 132.5,257C 117.167,257.667 101.833,257.667 86.5,257C 81.9315,254.459 80.4315,250.625 82,245.5C 83.3756,244.295 84.5423,242.962 85.5,241.5 Z"/></g>
<g><path style="opacity:0.879" fill="#000000" d="M 45.5,281.5 C 49.9671,281.133 54.3004,281.633 58.5,283C 62.619,294.229 58.619,298.896 46.5,297C 38.9705,292.215 38.6371,287.048 45.5,281.5 Z"/></g>
<g><path style="opacity:0.921" fill="#000000" d="M 85.5,281.5 C 101.503,281.333 117.503,281.5 133.5,282C 140.321,287.394 139.987,292.394 132.5,297C 117.5,297.667 102.5,297.667 87.5,297C 82.0945,295.02 80.2611,291.186 82,285.5C 83.3756,284.295 84.5423,282.962 85.5,281.5 Z"/></g>
<g><path style="opacity:0.947" fill="#000000" d="M 154.5,511.5 C 111.167,511.5 67.8333,511.5 24.5,511.5C 13.0915,508.078 6.2582,500.412 4,488.5C 3.33333,460.167 3.33333,431.833 4,403.5C 9.37137,385.383 21.538,377.716 40.5,380.5C 45.8333,380.667 51.1667,380.833 56.5,381C 62.3301,387.006 61.6635,392.006 54.5,396C 45.5,396.333 36.5,396.667 27.5,397C 23.9421,398.892 21.4421,401.725 20,405.5C 19.3333,432.5 19.3333,459.5 20,486.5C 21.9294,491.892 25.7627,495.059 31.5,496C 69.8333,496.667 108.167,496.667 146.5,496C 153.541,495.293 157.707,491.459 159,484.5C 159.667,458.833 159.667,433.167 159,407.5C 158.444,402.611 155.944,399.111 151.5,397C 129.5,396.667 107.5,396.333 85.5,396C 78.3365,392.006 77.6699,387.006 83.5,381C 107.167,380.333 130.833,380.333 154.5,381C 166.871,385.039 173.705,393.539 175,406.5C 175.667,432.833 175.667,459.167 175,485.5C 173.507,498.481 166.674,507.148 154.5,511.5 Z"/></g>
<g><path style="opacity:0.933" fill="#000000" d="M 288.5,396.5 C 335.867,396.03 383.2,396.53 430.5,398C 446.948,404.045 454.448,415.878 453,433.5C 450.044,448.789 440.878,457.623 425.5,460C 377.796,460.976 330.129,460.642 282.5,459C 263.23,450.958 256.397,436.791 262,416.5C 267.283,405.042 276.116,398.375 288.5,396.5 Z M 289.5,412.5 C 284.795,413.673 280.961,416.34 278,420.5C 273.389,432.444 277.222,440.278 289.5,444C 334.167,444.667 378.833,444.667 423.5,444C 428.364,443.146 432.197,440.646 435,436.5C 439.611,424.556 435.778,416.722 423.5,413C 378.835,412.5 334.168,412.333 289.5,412.5 Z"/></g>
<g><path style="opacity:0.926" fill="#000000" d="M 52.5,438.5 C 77.1689,438.333 101.836,438.5 126.5,439C 129.366,440.393 130.699,442.726 130.5,446C 130.668,450.833 128.335,453.5 123.5,454C 100.833,454.667 78.1667,454.667 55.5,454C 48.9239,452.825 46.7573,448.992 49,442.5C 49.6897,440.65 50.8564,439.316 52.5,438.5 Z"/></g>
</svg>
