<?xml version="1.0" encoding="UTF-8"?>
<!DOCTYPE svg PUBLIC "-//W3C//DTD SVG 1.1//EN" "http://www.w3.org/Graphics/SVG/1.1/DTD/svg11.dtd">
<svg xmlns="http://www.w3.org/2000/svg" version="1.1" width="512px" height="512px" style="shape-rendering:geometricPrecision; text-rendering:geometricPrecision; image-rendering:optimizeQuality; fill-rule:evenodd; clip-rule:evenodd" xmlns:xlink="http://www.w3.org/1999/xlink">
<g><path style="opacity:0.986" fill="#000000" d="M 104.5,15.5 C 118.329,13.081 128.329,18.081 134.5,30.5C 163.58,31.0154 192.58,31.8488 221.5,33C 222.126,33.7504 222.626,34.5838 223,35.5C 223.5,50.1629 223.667,64.8295 223.5,79.5C 244.833,79.5 266.167,79.5 287.5,79.5C 287.333,64.8295 287.5,50.1629 288,35.5C 288.5,33.6667 289.667,32.5 291.5,32C 319.839,31.8332 348.173,31.3332 376.5,30.5C 385.113,15.1308 397.446,11.2974 413.5,19C 428.167,32.6667 428.167,46.3333 413.5,60C 397.446,67.7026 385.113,63.8692 376.5,48.5C 352.176,47.5003 327.842,47.1669 303.5,47.5C 303.5,58.1667 303.5,68.8333 303.5,79.5C 366.168,79.3333 428.834,79.5 491.5,80C 493.333,80.5 494.5,81.6667 495,83.5C 495.995,188.247 495.662,292.914 494,397.5C 493.25,398.126 492.416,398.626 491.5,399C 431.501,399.5 371.501,399.667 311.5,399.5C 311.5,415.5 311.5,431.5 311.5,447.5C 340.255,447.017 368.922,447.517 397.5,449C 398.126,449.75 398.626,450.584 399,451.5C 399.667,464.833 399.667,478.167 399,491.5C 398.626,492.416 398.126,493.25 397.5,494C 350.249,495.162 302.916,495.662 255.5,495.5C 208.084,495.662 160.751,495.162 113.5,494C 112.874,493.25 112.374,492.416 112,491.5C 111.333,478.167 111.333,464.833 112,451.5C 112.374,450.584 112.874,449.75 113.5,449C 142.078,447.517 170.745,447.017 199.5,447.5C 199.5,431.5 199.5,415.5 199.5,399.5C 139.499,399.667 79.4991,399.5 19.5,399C 18.5838,398.626 17.7504,398.126 17,397.5C 15.3379,292.914 15.0045,188.247 16,83.5C 16.5,81.6667 17.6667,80.5 19.5,80C 82.1658,79.5 144.832,79.3333 207.5,79.5C 207.5,68.8333 207.5,58.1667 207.5,47.5C 183.158,47.1669 158.824,47.5003 134.5,48.5C 125.887,63.8692 113.554,67.7026 97.5,60C 82.8333,46.3333 82.8333,32.6667 97.5,19C 99.9252,17.7874 102.259,16.6207 104.5,15.5 Z M 108.5,32.5 C 117.85,32.3654 120.517,36.532 116.5,45C 107.956,48.3224 104.123,45.4891 105,36.5C 105.69,34.6498 106.856,33.3164 108.5,32.5 Z M 396.5,32.5 C 405.85,32.3654 408.517,36.532 404.5,45C 395.956,48.3224 392.123,45.4891 393,36.5C 393.69,34.6498 394.856,33.3164 396.5,32.5 Z M 31.5,95.5 C 90.1667,95.5 148.833,95.5 207.5,95.5C 207.667,121.502 207.5,147.502 207,173.5C 198.93,180.9 191.596,188.9 185,197.5C 184.294,199.971 184.627,202.305 186,204.5C 189.349,207.682 192.516,211.015 195.5,214.5C 189.421,215.085 183.421,215.918 177.5,217C 176.874,217.75 176.374,218.584 176,219.5C 175.501,223.486 175.334,227.486 175.5,231.5C 148.492,231.833 121.492,231.5 94.5,230.5C 85.887,215.131 73.5537,211.297 57.5,219C 42.8333,232.667 42.8333,246.333 57.5,260C 73.5537,267.703 85.887,263.869 94.5,248.5C 121.492,247.5 148.492,247.167 175.5,247.5C 175.334,251.514 175.501,255.514 176,259.5C 176.374,260.416 176.874,261.25 177.5,262C 183.421,263.082 189.421,263.915 195.5,264.5C 192.516,267.985 189.349,271.318 186,274.5C 183.963,278.334 184.296,282.001 187,285.5C 195.232,294.402 204.066,302.569 213.5,310C 215.167,310.667 216.833,310.667 218.5,310C 222.648,306.686 226.648,303.186 230.5,299.5C 231.329,304.802 231.829,310.136 232,315.5C 232.374,316.416 232.874,317.25 233.5,318C 240.733,319.133 248.066,319.633 255.5,319.5C 262.934,319.633 270.267,319.133 277.5,318C 278.126,317.25 278.626,316.416 279,315.5C 279.171,310.136 279.671,304.802 280.5,299.5C 284.352,303.186 288.352,306.686 292.5,310C 295.783,310.743 298.783,310.076 301.5,308C 310.402,299.768 318.569,290.934 326,281.5C 326.706,279.029 326.373,276.695 325,274.5C 321.651,271.318 318.484,267.985 315.5,264.5C 321.579,263.915 327.579,263.082 333.5,262C 334.126,261.25 334.626,260.416 335,259.5C 335.499,255.514 335.666,251.514 335.5,247.5C 362.508,247.167 389.508,247.5 416.5,248.5C 425.113,263.869 437.446,267.703 453.5,260C 468.167,246.333 468.167,232.667 453.5,219C 437.446,211.297 425.113,215.131 416.5,230.5C 389.508,231.5 362.508,231.833 335.5,231.5C 335.666,227.486 335.499,223.486 335,219.5C 334.626,218.584 334.126,217.75 333.5,217C 327.579,215.918 321.579,215.085 315.5,214.5C 318.484,211.015 321.651,207.682 325,204.5C 327.037,200.666 326.704,196.999 324,193.5C 317.333,186.833 310.667,180.167 304,173.5C 303.5,147.502 303.333,121.502 303.5,95.5C 362.167,95.5 420.833,95.5 479.5,95.5C 479.5,180.833 479.5,266.167 479.5,351.5C 330.167,351.5 180.833,351.5 31.5,351.5C 31.5,266.167 31.5,180.833 31.5,95.5 Z M 223.5,95.5 C 244.833,95.5 266.167,95.5 287.5,95.5C 287.667,121.502 287.5,147.502 287,173.5C 284.984,175.684 282.817,177.684 280.5,179.5C 279.671,174.198 279.171,168.864 279,163.5C 278.5,161.667 277.333,160.5 275.5,160C 262.167,159.333 248.833,159.333 235.5,160C 233.667,160.5 232.5,161.667 232,163.5C 231.829,168.864 231.329,174.198 230.5,179.5C 228.183,177.684 226.016,175.684 224,173.5C 223.5,147.502 223.333,121.502 223.5,95.5 Z M 247.5,175.5 C 252.833,175.5 258.167,175.5 263.5,175.5C 263.334,180.511 263.501,185.511 264,190.5C 265.167,191.667 266.333,192.833 267.5,194C 270.993,194.942 274.326,196.275 277.5,198C 280.167,198.667 282.833,198.667 285.5,198C 288.965,195.537 292.131,192.704 295,189.5C 298.5,193 302,196.5 305.5,200C 302.667,202.833 299.833,205.667 297,208.5C 296.834,215.54 298.501,222.207 302,228.5C 302.833,229.333 303.667,230.167 304.5,231C 309.489,231.499 314.489,231.666 319.5,231.5C 319.5,236.833 319.5,242.167 319.5,247.5C 314.489,247.334 309.489,247.501 304.5,248C 303.333,249.167 302.167,250.333 301,251.5C 300.058,254.993 298.725,258.326 297,261.5C 296.333,264.167 296.333,266.833 297,269.5C 299.463,272.965 302.296,276.131 305.5,279C 302,282.5 298.5,286 295,289.5C 292.131,286.296 288.965,283.463 285.5,281C 283.167,280.333 280.833,280.333 278.5,281C 275.167,282.333 271.833,283.667 268.5,285C 266,286.167 264.167,288 263,290.5C 262.501,294.821 262.334,299.154 262.5,303.5C 257.5,303.5 252.5,303.5 247.5,303.5C 247.666,298.489 247.499,293.489 247,288.5C 245.833,287.333 244.667,286.167 243.5,285C 238.49,283.16 233.49,281.327 228.5,279.5C 223.635,281.855 219.468,285.189 216,289.5C 212.651,286.318 209.484,282.985 206.5,279.5C 209.188,276.646 211.688,273.646 214,270.5C 214.167,269.167 214.333,267.833 214.5,266.5C 212.913,260.651 210.746,254.984 208,249.5C 207.25,248.874 206.416,248.374 205.5,248C 200.845,247.501 196.179,247.334 191.5,247.5C 191.5,242.167 191.5,236.833 191.5,231.5C 196.511,231.666 201.511,231.499 206.5,231C 207.667,229.833 208.833,228.667 210,227.5C 210.942,224.007 212.275,220.674 214,217.5C 214.667,214.833 214.667,212.167 214,209.5C 211.537,206.035 208.704,202.869 205.5,200C 209,196.5 212.5,193 216,189.5C 219.53,194.049 223.864,197.382 229,199.5C 233.753,197.543 238.587,195.71 243.5,194C 244.667,192.833 245.833,191.667 247,190.5C 247.499,185.511 247.666,180.511 247.5,175.5 Z M 250.5,224.5 C 267.765,224.257 273.598,232.257 268,248.5C 261.749,255.011 254.582,256.177 246.5,252C 239.989,245.749 238.823,238.582 243,230.5C 245.114,227.879 247.614,225.879 250.5,224.5 Z M 68.5,232.5 C 77.8504,232.365 80.517,236.532 76.5,245C 67.9562,248.322 64.1229,245.489 65,236.5C 65.6897,234.65 66.8564,233.316 68.5,232.5 Z M 436.5,232.5 C 445.85,232.365 448.517,236.532 444.5,245C 435.956,248.322 432.123,245.489 433,236.5C 433.69,234.65 434.856,233.316 436.5,232.5 Z M 31.5,367.5 C 180.833,367.5 330.167,367.5 479.5,367.5C 479.5,372.833 479.5,378.167 479.5,383.5C 330.167,383.5 180.833,383.5 31.5,383.5C 31.5,378.167 31.5,372.833 31.5,367.5 Z M 215.5,399.5 C 242.167,399.5 268.833,399.5 295.5,399.5C 295.5,415.5 295.5,431.5 295.5,447.5C 268.833,447.5 242.167,447.5 215.5,447.5C 215.5,431.5 215.5,415.5 215.5,399.5 Z M 127.5,463.5 C 212.833,463.5 298.167,463.5 383.5,463.5C 383.5,468.833 383.5,474.167 383.5,479.5C 298.167,479.5 212.833,479.5 127.5,479.5C 127.5,474.167 127.5,468.833 127.5,463.5 Z"/></g>
<g><path style="opacity:0.987" fill="#000000" d="M 51.5,111.5 C 70.1696,111.333 88.8363,111.5 107.5,112C 108.416,112.374 109.25,112.874 110,113.5C 111.48,136.743 111.98,160.076 111.5,183.5C 126.17,183.333 140.837,183.5 155.5,184C 157.333,184.5 158.5,185.667 159,187.5C 159.667,190.167 159.667,192.833 159,195.5C 158.5,197.333 157.333,198.5 155.5,199C 136.077,199.975 116.743,199.641 97.5,198C 96.8742,197.25 96.3742,196.416 96,195.5C 95.5,172.836 95.3334,150.169 95.5,127.5C 80.8295,127.667 66.1629,127.5 51.5,127C 48.484,125.471 47.1506,122.971 47.5,119.5C 47.2824,115.934 48.6157,113.268 51.5,111.5 Z"/></g>
<g><path style="opacity:0.987" fill="#000000" d="M 403.5,111.5 C 422.17,111.333 440.836,111.5 459.5,112C 460.416,112.374 461.25,112.874 462,113.5C 463.483,116.702 463.817,120.036 463,123.5C 462.5,125.333 461.333,126.5 459.5,127C 444.837,127.5 430.17,127.667 415.5,127.5C 415.667,150.169 415.5,172.836 415,195.5C 414.626,196.416 414.126,197.25 413.5,198C 394.257,199.641 374.923,199.975 355.5,199C 353.667,198.5 352.5,197.333 352,195.5C 351.333,192.833 351.333,190.167 352,187.5C 352.5,185.667 353.667,184.5 355.5,184C 370.163,183.5 384.83,183.333 399.5,183.5C 399.333,160.831 399.5,138.164 400,115.5C 400.69,113.65 401.856,112.316 403.5,111.5 Z"/></g>
<g><path style="opacity:0.93" fill="#000000" d="M 247.5,207.5 C 275.978,205.811 289.145,219.144 287,247.5C 280.645,266.438 267.478,274.272 247.5,271C 228.556,264.632 220.723,251.466 224,231.5C 227.349,218.985 235.182,210.985 247.5,207.5 Z M 250.5,224.5 C 247.614,225.879 245.114,227.879 243,230.5C 238.823,238.582 239.989,245.749 246.5,252C 254.582,256.177 261.749,255.011 268,248.5C 273.598,232.257 267.765,224.257 250.5,224.5 Z"/></g>
</svg>
