<svg xmlns="http://www.w3.org/2000/svg" width="2048" height="2048" viewBox="0 0 2048 2048" version="1.1"><path d="M 1453.500 808.588 C 1393.839 813.079, 1345.218 828.509, 1304.500 855.874 C 1245.154 895.758, 1209.212 953.866, 1198.341 1027.500 C 1195.911 1043.957, 1195.924 1086.864, 1198.363 1105.500 C 1206.258 1165.798, 1227.239 1210.574, 1266.483 1250.865 C 1295.209 1280.360, 1326.915 1302.691, 1374.500 1326.944 C 1400.097 1339.991, 1412.775 1345.721, 1453.500 1362.652 C 1495.916 1380.286, 1541.997 1402.564, 1561.206 1414.723 C 1594.681 1435.912, 1610.950 1457.332, 1614.963 1485.500 C 1622.690 1539.730, 1585.349 1581.596, 1519 1593.093 C 1495.943 1597.088, 1464.677 1596.618, 1440.265 1591.908 C 1385.561 1581.355, 1340.471 1549.011, 1305.864 1495.500 C 1301.596 1488.900, 1297.518 1482.739, 1296.802 1481.809 C 1295.622 1480.276, 1292.450 1481.878, 1263 1498.885 C 1245.125 1509.207, 1209.957 1529.461, 1184.850 1543.893 C 1159.742 1558.325, 1138.473 1570.666, 1137.585 1571.317 C 1136.152 1572.367, 1136.717 1573.849, 1142.611 1584.500 C 1191.344 1672.573, 1272.937 1732.183, 1377.500 1756.105 C 1444.777 1771.496, 1525.431 1771.815, 1590.216 1756.944 C 1619.597 1750.200, 1643.723 1741.555, 1669.500 1728.534 C 1741.204 1692.313, 1787.256 1633.049, 1802.407 1557.500 C 1806.498 1537.099, 1807.502 1525.170, 1807.461 1497.500 C 1807.419 1469.348, 1805.920 1452.703, 1801.449 1430.751 C 1787.026 1359.933, 1748.278 1307.129, 1676.486 1260.460 C 1640.382 1236.990, 1583.773 1208.706, 1524.500 1184.522 C 1493.696 1171.954, 1464.945 1158.803, 1448.681 1149.840 C 1403.910 1125.169, 1386.350 1102.443, 1384.384 1066.630 C 1382.905 1039.675, 1390.887 1018.027, 1408.562 1001.057 C 1427.441 982.930, 1452.125 974.792, 1483.500 976.350 C 1532.998 978.808, 1564.665 999.755, 1594.025 1049.463 L 1600.166 1059.861 1610.333 1053.285 C 1695.946 997.909, 1745.725 965.541, 1746.681 964.628 C 1748.792 962.612, 1730.075 932.273, 1713.614 911.027 C 1697.505 890.237, 1670.397 865.371, 1649 851.759 C 1613.555 829.210, 1570.877 815.345, 1520.500 810.013 C 1510.251 808.929, 1462.474 807.912, 1453.500 808.588 M 843.764 1157.750 L 843.496 1503.500 841.172 1516 C 838.351 1531.163, 834.318 1543.641, 828.752 1554.420 C 822.678 1566.184, 809.627 1579.061, 798 1584.763 C 781.380 1592.914, 758.393 1596.832, 734 1595.671 C 718.319 1594.925, 704.707 1591.621, 692.500 1585.598 C 680.875 1579.862, 672.646 1573.553, 661.500 1561.830 C 650.684 1550.454, 644.395 1541.798, 629.463 1517.732 C 623.241 1507.704, 617.554 1498.740, 616.825 1497.812 C 615.622 1496.279, 608.571 1499.864, 540.500 1536.621 C 499.250 1558.895, 464.248 1577.786, 462.719 1578.602 L 459.937 1580.084 467.631 1595.127 C 475.975 1611.443, 488.413 1630.979, 500.021 1646 C 510.367 1659.388, 536.318 1684.948, 550 1695.225 C 610.597 1740.742, 686.735 1760.762, 777.273 1754.987 C 858.369 1749.813, 921.655 1723.880, 965.555 1677.831 C 1006.890 1634.472, 1029.912 1574.864, 1035.009 1498 C 1035.593 1489.191, 1035.976 1351.730, 1035.985 1147.750 L 1036 812 940.015 812 L 844.031 812 843.764 1157.750" stroke="none" fill="#040404" fill-rule="evenodd"/><path d="M 271.500 1.496 C 224.275 7.502, 181.756 22.590, 142.500 47.272 C 106.505 69.904, 69.868 106.542, 47.276 142.500 C 22.331 182.202, 7.423 224.371, 1.494 272 C -0.663 289.325, -0.663 1758.675, 1.494 1776 C 8.732 1834.138, 28.556 1882.464, 64.873 1930.500 C 76.271 1945.577, 104.797 1973.623, 121 1985.683 C 167.339 2020.175, 215.135 2039.427, 272 2046.506 C 289.325 2048.663, 1758.675 2048.663, 1776 2046.506 C 1818.434 2041.223, 1854.600 2029.487, 1891 2009.187 C 1917.332 1994.502, 1935.199 1980.868, 1958.033 1958.033 C 1986.728 1929.339, 2006.167 1901.190, 2022.282 1865 C 2034.467 1837.636, 2044.722 1799.385, 2046.679 1774.001 C 2047.019 1769.600, 2047.680 1766, 2048.148 1766 C 2048.617 1766, 2048.993 1431.538, 2048.985 1022.750 C 2048.976 613.962, 2048.595 280.090, 2048.138 280.812 C 2047.634 281.606, 2047.061 278.947, 2046.684 274.061 C 2044.720 248.591, 2034.463 210.328, 2022.272 183 C 2006.071 146.680, 1986.551 118.396, 1958.067 89.967 C 1935.473 67.416, 1917.294 53.490, 1891.987 39.348 C 1854.854 18.596, 1818.764 6.818, 1776 1.494 C 1766.110 0.263, 1660.697 0.074, 1023 0.143 C 429.306 0.208, 279.507 0.478, 271.500 1.496 M 0.497 1024 C 0.497 1432.925, 0.611 1600.213, 0.750 1395.750 C 0.889 1191.288, 0.889 856.713, 0.750 652.250 C 0.611 447.788, 0.497 615.075, 0.497 1024 M 1453.500 808.588 C 1393.839 813.079, 1345.218 828.509, 1304.500 855.874 C 1245.154 895.758, 1209.212 953.866, 1198.341 1027.500 C 1195.911 1043.957, 1195.924 1086.864, 1198.363 1105.500 C 1206.258 1165.798, 1227.239 1210.574, 1266.483 1250.865 C 1295.209 1280.360, 1326.915 1302.691, 1374.500 1326.944 C 1400.097 1339.991, 1412.775 1345.721, 1453.500 1362.652 C 1495.916 1380.286, 1541.997 1402.564, 1561.206 1414.723 C 1594.681 1435.912, 1610.950 1457.332, 1614.963 1485.500 C 1622.690 1539.730, 1585.349 1581.596, 1519 1593.093 C 1495.943 1597.088, 1464.677 1596.618, 1440.265 1591.908 C 1385.561 1581.355, 1340.471 1549.011, 1305.864 1495.500 C 1301.596 1488.900, 1297.518 1482.739, 1296.802 1481.809 C 1295.622 1480.276, 1292.450 1481.878, 1263 1498.885 C 1245.125 1509.207, 1209.957 1529.461, 1184.850 1543.893 C 1159.742 1558.325, 1138.473 1570.666, 1137.585 1571.317 C 1136.152 1572.367, 1136.717 1573.849, 1142.611 1584.500 C 1191.344 1672.573, 1272.937 1732.183, 1377.500 1756.105 C 1444.777 1771.496, 1525.431 1771.815, 1590.216 1756.944 C 1619.597 1750.200, 1643.723 1741.555, 1669.500 1728.534 C 1741.204 1692.313, 1787.256 1633.049, 1802.407 1557.500 C 1806.498 1537.099, 1807.502 1525.170, 1807.461 1497.500 C 1807.419 1469.348, 1805.920 1452.703, 1801.449 1430.751 C 1787.026 1359.933, 1748.278 1307.129, 1676.486 1260.460 C 1640.382 1236.990, 1583.773 1208.706, 1524.500 1184.522 C 1493.696 1171.954, 1464.945 1158.803, 1448.681 1149.840 C 1403.910 1125.169, 1386.350 1102.443, 1384.384 1066.630 C 1382.905 1039.675, 1390.887 1018.027, 1408.562 1001.057 C 1427.441 982.930, 1452.125 974.792, 1483.500 976.350 C 1532.998 978.808, 1564.665 999.755, 1594.025 1049.463 L 1600.166 1059.861 1610.333 1053.285 C 1695.946 997.909, 1745.725 965.541, 1746.681 964.628 C 1748.792 962.612, 1730.075 932.273, 1713.614 911.027 C 1697.505 890.237, 1670.397 865.371, 1649 851.759 C 1613.555 829.210, 1570.877 815.345, 1520.500 810.013 C 1510.251 808.929, 1462.474 807.912, 1453.500 808.588 M 843.764 1157.750 L 843.496 1503.500 841.172 1516 C 838.351 1531.163, 834.318 1543.641, 828.752 1554.420 C 822.678 1566.184, 809.627 1579.061, 798 1584.763 C 781.380 1592.914, 758.393 1596.832, 734 1595.671 C 718.319 1594.925, 704.707 1591.621, 692.500 1585.598 C 680.875 1579.862, 672.646 1573.553, 661.500 1561.830 C 650.684 1550.454, 644.395 1541.798, 629.463 1517.732 C 623.241 1507.704, 617.554 1498.740, 616.825 1497.812 C 615.622 1496.279, 608.571 1499.864, 540.500 1536.621 C 499.250 1558.895, 464.248 1577.786, 462.719 1578.602 L 459.937 1580.084 467.631 1595.127 C 475.975 1611.443, 488.413 1630.979, 500.021 1646 C 510.367 1659.388, 536.318 1684.948, 550 1695.225 C 610.597 1740.742, 686.735 1760.762, 777.273 1754.987 C 858.369 1749.813, 921.655 1723.880, 965.555 1677.831 C 1006.890 1634.472, 1029.912 1574.864, 1035.009 1498 C 1035.593 1489.191, 1035.976 1351.730, 1035.985 1147.750 L 1036 812 940.015 812 L 844.031 812 843.764 1157.750" stroke="none" fill="#f3e31b" fill-rule="evenodd"/></svg>